<?xml version="1.0" encoding="UTF-8" standalone="no"?>
<svg xmlns="http://www.w3.org/2000/svg"
     xmlns:xlink="http://www.w3.org/1999/xlink"
     width="576pt" height="432pt" viewBox="0 0 576 432">
<title>gl2ps_renderer figure</title>
<desc>
Creator: GL2PS 1.4.0, (C) 1999-2017 C. Geuzaine
For: Octave
CreationDate: Sun Dec 23 22:22:05 2018
</desc>
<defs>
</defs>
<polygon fill="#ffffff" points="0,0 576,0 576,432 0,432"/>
<g>
<polygon fill="#ffffff" points="0,432 576,432 576,0 0,0" shape-rendering="crispEdges"/>
<clipPath id="cp00576432">
  <polygon points="0,432 576,432 576,0 0,0"/>
</clipPath>
<g clip-path="url(#cp00576432)">
<polygon fill="#ffffff" shape-rendering="crispEdges" points="74.88,384.48 521.28,384.48 74.88,32.4"/>
<polygon fill="#ffffff" shape-rendering="crispEdges" points="521.28,384.48 521.28,32.4 74.88,32.4"/>
<polyline fill="none" stroke="#262626" stroke-width="0.5" stroke-linecap="butt" stroke-linejoin="miter" stroke-opacity="0.15" stroke-dasharray="16,0" points="74.88,384.48 74.88,32.4"/>
<polyline fill="none" stroke="#262626" stroke-width="0.5" stroke-linecap="butt" stroke-linejoin="miter" stroke-opacity="0.15" stroke-dasharray="16,0" points="164.16,384.48 164.16,32.4"/>
<polyline fill="none" stroke="#262626" stroke-width="0.5" stroke-linecap="butt" stroke-linejoin="miter" stroke-opacity="0.15" stroke-dasharray="16,0" points="253.44,384.48 253.44,32.4"/>
<polyline fill="none" stroke="#262626" stroke-width="0.5" stroke-linecap="butt" stroke-linejoin="miter" stroke-opacity="0.15" stroke-dasharray="16,0" points="342.72,384.48 342.72,32.4"/>
<polyline fill="none" stroke="#262626" stroke-width="0.5" stroke-linecap="butt" stroke-linejoin="miter" stroke-opacity="0.15" stroke-dasharray="16,0" points="432,384.48 432,32.4"/>
<polyline fill="none" stroke="#262626" stroke-width="0.5" stroke-linecap="butt" stroke-linejoin="miter" stroke-opacity="0.15" stroke-dasharray="16,0" points="521.28,384.48 521.28,32.4"/>
<polyline fill="none" stroke="#262626" stroke-width="0.5" stroke-linecap="butt" stroke-linejoin="miter" points="74.88,384.48 74.88,380.015"/>
<polyline fill="none" stroke="#262626" stroke-width="0.5" stroke-linecap="butt" stroke-linejoin="miter" points="164.16,384.48 164.16,380.015"/>
<polyline fill="none" stroke="#262626" stroke-width="0.5" stroke-linecap="butt" stroke-linejoin="miter" points="253.44,384.48 253.44,380.015"/>
<polyline fill="none" stroke="#262626" stroke-width="0.5" stroke-linecap="butt" stroke-linejoin="miter" points="342.72,384.48 342.72,380.015"/>
<polyline fill="none" stroke="#262626" stroke-width="0.5" stroke-linecap="butt" stroke-linejoin="miter" points="432,384.48 432,380.015"/>
<polyline fill="none" stroke="#262626" stroke-width="0.5" stroke-linecap="butt" stroke-linejoin="miter" points="521.28,384.48 521.28,380.015"/>
<text xml:space="preserve" transform="translate(66.88,405.481) rotate(-0,8,-16)" font-family="FreeSans" font-weight="normal" font-style="normal" font-size="10"><tspan y="-1" fill="rgb(38,38,38)" x="0 6 ">10</tspan><tspan font-size="8" y="-7" fill="rgb(38,38,38)" x="12 ">0</tspan></text>
<text xml:space="preserve" transform="translate(156.16,405.481) rotate(-0,8,-16)" font-family="FreeSans" font-weight="normal" font-style="normal" font-size="10"><tspan y="-1" fill="rgb(38,38,38)" x="0 6 ">10</tspan><tspan font-size="8" y="-7" fill="rgb(38,38,38)" x="12 ">1</tspan></text>
<text xml:space="preserve" transform="translate(245.44,405.481) rotate(-0,8,-16)" font-family="FreeSans" font-weight="normal" font-style="normal" font-size="10"><tspan y="-1" fill="rgb(38,38,38)" x="0 6 ">10</tspan><tspan font-size="8" y="-7" fill="rgb(38,38,38)" x="12 ">2</tspan></text>
<text xml:space="preserve" transform="translate(334.72,405.481) rotate(-0,8,-16)" font-family="FreeSans" font-weight="normal" font-style="normal" font-size="10"><tspan y="-1" fill="rgb(38,38,38)" x="0 6 ">10</tspan><tspan font-size="8" y="-7" fill="rgb(38,38,38)" x="12 ">3</tspan></text>
<text xml:space="preserve" transform="translate(424,405.481) rotate(-0,8,-16)" font-family="FreeSans" font-weight="normal" font-style="normal" font-size="10"><tspan y="-1" fill="rgb(38,38,38)" x="0 6 ">10</tspan><tspan font-size="8" y="-7" fill="rgb(38,38,38)" x="12 ">4</tspan></text>
<text xml:space="preserve" transform="translate(513.28,405.481) rotate(-0,8,-16)" font-family="FreeSans" font-weight="normal" font-style="normal" font-size="10"><tspan y="-1" fill="rgb(38,38,38)" x="0 6 ">10</tspan><tspan font-size="8" y="-7" fill="rgb(38,38,38)" x="12 ">5</tspan></text>
<polyline fill="none" stroke="#262626" stroke-width="0.5" stroke-linecap="butt" stroke-linejoin="miter" stroke-opacity="0.15" stroke-dasharray="16,0" points="74.88,384.48 521.28,384.48"/>
<polyline fill="none" stroke="#262626" stroke-width="0.5" stroke-linecap="butt" stroke-linejoin="miter" stroke-opacity="0.15" stroke-dasharray="16,0" points="74.88,314.064 521.28,314.064"/>
<polyline fill="none" stroke="#262626" stroke-width="0.5" stroke-linecap="butt" stroke-linejoin="miter" stroke-opacity="0.15" stroke-dasharray="16,0" points="74.88,243.648 521.28,243.648"/>
<polyline fill="none" stroke="#262626" stroke-width="0.5" stroke-linecap="butt" stroke-linejoin="miter" stroke-opacity="0.15" stroke-dasharray="16,0" points="74.88,173.232 521.28,173.232"/>
<polyline fill="none" stroke="#262626" stroke-width="0.5" stroke-linecap="butt" stroke-linejoin="miter" stroke-opacity="0.15" stroke-dasharray="16,0" points="74.88,102.816 521.28,102.816"/>
<polyline fill="none" stroke="#262626" stroke-width="0.5" stroke-linecap="butt" stroke-linejoin="miter" stroke-opacity="0.15" stroke-dasharray="16,0" points="74.88,32.4 521.28,32.4"/>
<polyline fill="none" stroke="#262626" stroke-width="0.5" stroke-linecap="butt" stroke-linejoin="miter" points="74.88,384.48 79.348,384.48"/>
<polyline fill="none" stroke="#262626" stroke-width="0.5" stroke-linecap="butt" stroke-linejoin="miter" points="74.88,314.064 79.348,314.064"/>
<polyline fill="none" stroke="#262626" stroke-width="0.5" stroke-linecap="butt" stroke-linejoin="miter" points="74.88,243.648 79.348,243.648"/>
<polyline fill="none" stroke="#262626" stroke-width="0.5" stroke-linecap="butt" stroke-linejoin="miter" points="74.88,173.232 79.348,173.232"/>
<polyline fill="none" stroke="#262626" stroke-width="0.5" stroke-linecap="butt" stroke-linejoin="miter" points="74.88,102.816 79.348,102.816"/>
<polyline fill="none" stroke="#262626" stroke-width="0.5" stroke-linecap="butt" stroke-linejoin="miter" points="74.88,32.4 79.348,32.4"/>
<text xml:space="preserve" transform="translate(53.8755,392.48) rotate(-0,16,-8)" font-family="FreeSans" font-weight="normal" font-style="normal" font-size="10"><tspan y="-1" fill="rgb(38,38,38)" x="0 6 ">10</tspan><tspan font-size="8" y="-7" fill="rgb(38,38,38)" x="12 ">3</tspan></text>
<text xml:space="preserve" transform="translate(53.8755,322.064) rotate(-0,16,-8)" font-family="FreeSans" font-weight="normal" font-style="normal" font-size="10"><tspan y="-1" fill="rgb(38,38,38)" x="0 6 ">10</tspan><tspan font-size="8" y="-7" fill="rgb(38,38,38)" x="12 ">4</tspan></text>
<text xml:space="preserve" transform="translate(53.8755,251.648) rotate(-0,16,-8)" font-family="FreeSans" font-weight="normal" font-style="normal" font-size="10"><tspan y="-1" fill="rgb(38,38,38)" x="0 6 ">10</tspan><tspan font-size="8" y="-7" fill="rgb(38,38,38)" x="12 ">5</tspan></text>
<text xml:space="preserve" transform="translate(53.8755,181.232) rotate(-0,16,-8)" font-family="FreeSans" font-weight="normal" font-style="normal" font-size="10"><tspan y="-1" fill="rgb(38,38,38)" x="0 6 ">10</tspan><tspan font-size="8" y="-7" fill="rgb(38,38,38)" x="12 ">6</tspan></text>
<text xml:space="preserve" transform="translate(53.8755,110.816) rotate(-0,16,-8)" font-family="FreeSans" font-weight="normal" font-style="normal" font-size="10"><tspan y="-1" fill="rgb(38,38,38)" x="0 6 ">10</tspan><tspan font-size="8" y="-7" fill="rgb(38,38,38)" x="12 ">7</tspan></text>
<text xml:space="preserve" transform="translate(53.8755,40.4) rotate(-0,16,-8)" font-family="FreeSans" font-weight="normal" font-style="normal" font-size="10"><tspan y="-1" fill="rgb(38,38,38)" x="0 6 ">10</tspan><tspan font-size="8" y="-7" fill="rgb(38,38,38)" x="12 ">8</tspan></text>
<polyline fill="none" stroke="#262626" stroke-width="0.5" stroke-linecap="square" stroke-linejoin="miter" stroke-dasharray="16,0" points="74.88,384.48 521.28,384.48"/>
<polyline fill="none" stroke="#262626" stroke-width="0.5" stroke-linecap="square" stroke-linejoin="miter" stroke-dasharray="16,0" points="74.88,384.48 74.88,32.4"/>
<text xml:space="preserve" transform="translate(288.08,418.481) rotate(-0,10,-13)" font-family="FreeSans" font-weight="normal" font-style="normal" font-size="11"><tspan y="-2" fill="rgb(38,38,38)" x="0 7 9 14 ">Size</tspan></text>
<text xml:space="preserve" transform="translate(27.8755,208.44) rotate(-90,22,0)" font-family="FreeSans" font-weight="normal" font-style="normal" font-size="11"><tspan y="-2" fill="rgb(38,38,38)" x="0 7 9 18 24 27 30 36 41 ">Time [ns]</tspan></text>
<text xml:space="preserve" transform="translate(273.08,22.4) rotate(-0,25,0)" font-family="FreeSans" font-weight="bold" font-style="normal" font-size="11"><tspan y="-2" fill="rgb(0,0,0)" x="0 7 13 17 20 23 30 36 42 46 ">Set Insert</tspan></text>
<polyline fill="none" stroke="#0071bc" stroke-width="0.5" stroke-linecap="butt" stroke-linejoin="round" points="74.88,382.669 101.756,380.661 128.632,378.274 155.508,376.129 182.384,367.088 209.26,356.191 236.136,341.219 263.012,323.521 289.888,295.899 316.764,262.43 343.64,233.631 370.516,206.617 397.391,182.633 424.267,155.871 451.143,130.793 478.019,103.365"/>
<polyline fill="none" stroke="#d85218" stroke-width="0.5" stroke-linecap="butt" stroke-linejoin="round" points="74.88,383.844 101.756,383.193 128.632,380.688 155.508,375.713 182.384,372.865 209.26,362.858 236.136,349.015 263.012,332.993 289.888,313.047 316.764,277.431 343.64,244.244 370.516,215.516 397.391,187.971 424.267,157.593 451.143,121.512 478.019,79.0527"/>
</g>
<clipPath id="cp00576432">
  <polygon points="0,432 576,432 576,0 0,0"/>
</clipPath>
<g clip-path="url(#cp00576432)">
<polygon fill="#ffffff" shape-rendering="crispEdges" points="459.867,63.268 518.534,63.268 459.867,35.1465"/>
<polygon fill="#ffffff" shape-rendering="crispEdges" points="518.534,63.268 518.534,35.1465 459.867,35.1465"/>
<polyline fill="none" stroke="#262626" stroke-width="0.5" stroke-linecap="square" stroke-linejoin="miter" stroke-dasharray="16,0" points="459.867,63.268 518.534,63.268"/>
<polyline fill="none" stroke="#262626" stroke-width="0.5" stroke-linecap="square" stroke-linejoin="miter" stroke-dasharray="16,0" points="459.867,35.1465 518.534,35.1465"/>
<polyline fill="none" stroke="#262626" stroke-width="0.5" stroke-linecap="square" stroke-linejoin="miter" stroke-dasharray="16,0" points="459.867,63.268 459.867,35.1465"/>
<polyline fill="none" stroke="#262626" stroke-width="0.5" stroke-linecap="square" stroke-linejoin="miter" stroke-dasharray="16,0" points="518.534,63.268 518.534,35.1465"/>
<text xml:space="preserve" transform="translate(485.958,47.6768) rotate(-0,-0,-5.5)" font-family="FreeSans" font-weight="normal" font-style="normal" font-size="9"><tspan y="-1" fill="rgb(0,0,0)" x="0 4 7 12 14 16 20 25 ">std::set</tspan></text>
<text xml:space="preserve" transform="translate(485.958,61.7376) rotate(-0,-0,-5.5)" font-family="FreeSans" font-weight="normal" font-style="normal" font-size="9"><tspan y="-1" fill="rgb(0,0,0)" x="0 5 7 12 15 21 26 ">FlatSet</tspan></text>
<polyline fill="none" stroke="#0071bc" stroke-width="0.5" stroke-linecap="butt" stroke-linejoin="round" points="462.614,42.1768 483.212,42.1768"/>
<polyline fill="none" stroke="#d85218" stroke-width="0.5" stroke-linecap="butt" stroke-linejoin="round" points="462.614,56.2376 483.212,56.2376"/>
</g>
</g>
</svg>
